<mxfile host="app.diagrams.net" modified="2024-06-12T18:47:08.908Z" agent="Mozilla/5.0 (Windows NT 10.0; Win64; x64; rv:126.0) Gecko/20100101 Firefox/126.0" etag="fMzmyGv2NhmmDN1xbFbj" version="24.5.4" type="device">
  <diagram name="PÃ¡gina-1" id="NcUw3zklXFF5DcyBGEPd">
    <mxGraphModel dx="1018" dy="595" grid="1" gridSize="10" guides="1" tooltips="1" connect="1" arrows="1" fold="1" page="1" pageScale="1" pageWidth="827" pageHeight="1169" background="#000000" math="0" shadow="0">
      <root>
        <mxCell id="0" />
        <mxCell id="1" parent="0" />
        <mxCell id="pjMFJL4pRq1TfvZJni5_-3" value="" style="rounded=0;whiteSpace=wrap;html=1;fillColor=none;strokeColor=#FF99FF;dashed=1;" vertex="1" parent="1">
          <mxGeometry x="70" y="120" width="680" height="460" as="geometry" />
        </mxCell>
        <mxCell id="pjMFJL4pRq1TfvZJni5_-13" value="" style="edgeStyle=orthogonalEdgeStyle;rounded=0;orthogonalLoop=1;jettySize=auto;html=1;" edge="1" parent="1">
          <mxGeometry relative="1" as="geometry">
            <mxPoint x="350" y="370" as="sourcePoint" />
            <mxPoint x="355" y="450" as="targetPoint" />
          </mxGeometry>
        </mxCell>
        <mxCell id="pjMFJL4pRq1TfvZJni5_-35" value="&lt;font color=&quot;#ffffff&quot;&gt;Edge Zone&lt;br&gt;&lt;/font&gt;" style="text;html=1;align=center;verticalAlign=middle;whiteSpace=wrap;rounded=0;" vertex="1" parent="1">
          <mxGeometry x="620" y="129.5" width="130" height="30" as="geometry" />
        </mxCell>
        <mxCell id="pjMFJL4pRq1TfvZJni5_-36" value="&lt;font color=&quot;#ffffff&quot;&gt;ESP32 Node&lt;br&gt;&lt;/font&gt;" style="text;html=1;align=center;verticalAlign=middle;whiteSpace=wrap;rounded=0;" vertex="1" parent="1">
          <mxGeometry x="90" y="190" width="130" height="30" as="geometry" />
        </mxCell>
        <mxCell id="pjMFJL4pRq1TfvZJni5_-37" value="" style="rounded=0;whiteSpace=wrap;html=1;fillColor=none;strokeColor=#D5E8D4;dashed=1;dashPattern=12 12;" vertex="1" parent="1">
          <mxGeometry x="390" y="159.5" width="340" height="400" as="geometry" />
        </mxCell>
        <mxCell id="pjMFJL4pRq1TfvZJni5_-38" value="&lt;font color=&quot;#ffffff&quot;&gt;Registry of UID:(Last Access, Node_ID)&lt;br&gt;&lt;/font&gt;" style="text;html=1;align=center;verticalAlign=middle;whiteSpace=wrap;rounded=0;" vertex="1" parent="1">
          <mxGeometry x="575" y="510" width="130" height="30" as="geometry" />
        </mxCell>
        <mxCell id="pjMFJL4pRq1TfvZJni5_-55" value="&lt;font color=&quot;#ffffff&quot;&gt;/authenticate&lt;/font&gt;" style="sketch=0;outlineConnect=0;fontColor=#232F3E;gradientColor=none;strokeColor=#232F3E;fillColor=#ffffff;dashed=0;verticalLabelPosition=bottom;verticalAlign=top;align=center;html=1;fontSize=12;fontStyle=0;aspect=fixed;shape=mxgraph.aws4.resourceIcon;resIcon=mxgraph.aws4.topic_2;" vertex="1" parent="1">
          <mxGeometry x="300" y="309" width="50" height="50" as="geometry" />
        </mxCell>
        <mxCell id="pjMFJL4pRq1TfvZJni5_-62" value="&lt;div&gt;&lt;font color=&quot;#ffffff&quot;&gt;Lockout Logic&lt;br&gt;&lt;/font&gt;&lt;/div&gt;" style="text;html=1;align=center;verticalAlign=middle;whiteSpace=wrap;rounded=0;" vertex="1" parent="1">
          <mxGeometry x="575" y="368" width="130" height="30" as="geometry" />
        </mxCell>
        <mxCell id="pjMFJL4pRq1TfvZJni5_-72" style="edgeStyle=orthogonalEdgeStyle;rounded=0;orthogonalLoop=1;jettySize=auto;html=1;strokeColor=#FFFFFF;" edge="1" parent="1" source="pjMFJL4pRq1TfvZJni5_-71" target="pjMFJL4pRq1TfvZJni5_-55">
          <mxGeometry relative="1" as="geometry">
            <Array as="points">
              <mxPoint x="240" y="256" />
              <mxPoint x="240" y="334" />
            </Array>
          </mxGeometry>
        </mxCell>
        <mxCell id="pjMFJL4pRq1TfvZJni5_-71" value="" style="sketch=0;outlineConnect=0;fontColor=#232F3E;gradientColor=none;strokeColor=#232F3E;fillColor=#ffffff;dashed=0;verticalLabelPosition=bottom;verticalAlign=top;align=center;html=1;fontSize=12;fontStyle=0;aspect=fixed;shape=mxgraph.aws4.resourceIcon;resIcon=mxgraph.aws4.door_lock;" vertex="1" parent="1">
          <mxGeometry x="125" y="225.8" width="60" height="60" as="geometry" />
        </mxCell>
        <mxCell id="pjMFJL4pRq1TfvZJni5_-73" value="&lt;font color=&quot;#ffffff&quot;&gt;ESP32 Node&lt;br&gt;&lt;/font&gt;" style="text;html=1;align=center;verticalAlign=middle;whiteSpace=wrap;rounded=0;" vertex="1" parent="1">
          <mxGeometry x="90" y="447.4" width="130" height="30" as="geometry" />
        </mxCell>
        <mxCell id="pjMFJL4pRq1TfvZJni5_-75" style="edgeStyle=orthogonalEdgeStyle;rounded=0;orthogonalLoop=1;jettySize=auto;html=1;strokeColor=#FFFFFF;" edge="1" parent="1" source="pjMFJL4pRq1TfvZJni5_-74" target="pjMFJL4pRq1TfvZJni5_-55">
          <mxGeometry relative="1" as="geometry">
            <Array as="points">
              <mxPoint x="240" y="410" />
              <mxPoint x="240" y="334" />
            </Array>
          </mxGeometry>
        </mxCell>
        <mxCell id="pjMFJL4pRq1TfvZJni5_-74" value="" style="sketch=0;outlineConnect=0;fontColor=#232F3E;gradientColor=none;strokeColor=#232F3E;fillColor=#ffffff;dashed=0;verticalLabelPosition=bottom;verticalAlign=top;align=center;html=1;fontSize=12;fontStyle=0;aspect=fixed;shape=mxgraph.aws4.resourceIcon;resIcon=mxgraph.aws4.door_lock;" vertex="1" parent="1">
          <mxGeometry x="125" y="387.4" width="60" height="60" as="geometry" />
        </mxCell>
        <mxCell id="pjMFJL4pRq1TfvZJni5_-76" value="&lt;font color=&quot;#ffffff&quot;&gt;UID: NADM1d1s&lt;br&gt;&lt;/font&gt;" style="text;html=1;align=center;verticalAlign=middle;whiteSpace=wrap;rounded=0;" vertex="1" parent="1">
          <mxGeometry x="170" y="440" width="130" height="30" as="geometry" />
        </mxCell>
        <mxCell id="pjMFJL4pRq1TfvZJni5_-78" value="&lt;font color=&quot;#ffffff&quot;&gt;UID: NADM1d1s&lt;br&gt;&lt;/font&gt;" style="text;html=1;align=center;verticalAlign=middle;whiteSpace=wrap;rounded=0;" vertex="1" parent="1">
          <mxGeometry x="170" y="225.8" width="130" height="30" as="geometry" />
        </mxCell>
        <mxCell id="pjMFJL4pRq1TfvZJni5_-79" style="edgeStyle=orthogonalEdgeStyle;rounded=0;orthogonalLoop=1;jettySize=auto;html=1;entryX=0.005;entryY=0.466;entryDx=0;entryDy=0;entryPerimeter=0;" edge="1" parent="1" source="pjMFJL4pRq1TfvZJni5_-55" target="pjMFJL4pRq1TfvZJni5_-37">
          <mxGeometry relative="1" as="geometry" />
        </mxCell>
        <mxCell id="pjMFJL4pRq1TfvZJni5_-88" style="edgeStyle=orthogonalEdgeStyle;rounded=0;orthogonalLoop=1;jettySize=auto;html=1;strokeColor=#FFFFFF;" edge="1" parent="1" source="pjMFJL4pRq1TfvZJni5_-82" target="pjMFJL4pRq1TfvZJni5_-91">
          <mxGeometry relative="1" as="geometry">
            <mxPoint x="550" y="334" as="targetPoint" />
          </mxGeometry>
        </mxCell>
        <mxCell id="pjMFJL4pRq1TfvZJni5_-82" value="" style="image;aspect=fixed;html=1;points=[];align=center;fontSize=12;image=img/lib/azure2/security/Multifactor_Authentication.svg;" vertex="1" parent="1">
          <mxGeometry x="430.00000000000006" y="300" width="55.400000000000006" height="68" as="geometry" />
        </mxCell>
        <mxCell id="pjMFJL4pRq1TfvZJni5_-83" style="edgeStyle=orthogonalEdgeStyle;rounded=0;orthogonalLoop=1;jettySize=auto;html=1;entryX=0.026;entryY=0.463;entryDx=0;entryDy=0;entryPerimeter=0;strokeColor=#FFFFFF;" edge="1" parent="1" source="pjMFJL4pRq1TfvZJni5_-55" target="pjMFJL4pRq1TfvZJni5_-82">
          <mxGeometry relative="1" as="geometry" />
        </mxCell>
        <mxCell id="pjMFJL4pRq1TfvZJni5_-85" value="" style="sketch=0;outlineConnect=0;fontColor=#232F3E;gradientColor=none;fillColor=#FFFFFF;strokeColor=none;dashed=0;verticalLabelPosition=bottom;verticalAlign=top;align=center;html=1;fontSize=12;fontStyle=0;aspect=fixed;pointerEvents=1;shape=mxgraph.aws4.logs;" vertex="1" parent="1">
          <mxGeometry x="620.2700000000001" y="447.40000000000003" width="39.46" height="54" as="geometry" />
        </mxCell>
        <mxCell id="pjMFJL4pRq1TfvZJni5_-86" value="&lt;font color=&quot;#ffffff&quot;&gt;Edge Server&lt;br&gt;&lt;/font&gt;" style="text;html=1;align=center;verticalAlign=middle;whiteSpace=wrap;rounded=0;" vertex="1" parent="1">
          <mxGeometry x="620" y="170" width="130" height="30" as="geometry" />
        </mxCell>
        <mxCell id="pjMFJL4pRq1TfvZJni5_-89" style="edgeStyle=orthogonalEdgeStyle;rounded=0;orthogonalLoop=1;jettySize=auto;html=1;strokeColor=#FFFFFF;exitX=0.5;exitY=1;exitDx=0;exitDy=0;" edge="1" parent="1" source="pjMFJL4pRq1TfvZJni5_-91" target="pjMFJL4pRq1TfvZJni5_-85">
          <mxGeometry relative="1" as="geometry">
            <mxPoint x="665.0999999999999" y="374" as="sourcePoint" />
            <Array as="points">
              <mxPoint x="640" y="477" />
            </Array>
          </mxGeometry>
        </mxCell>
        <mxCell id="pjMFJL4pRq1TfvZJni5_-95" style="edgeStyle=orthogonalEdgeStyle;rounded=0;orthogonalLoop=1;jettySize=auto;html=1;strokeColor=#FFFFFF;" edge="1" parent="1" source="pjMFJL4pRq1TfvZJni5_-91" target="pjMFJL4pRq1TfvZJni5_-94">
          <mxGeometry relative="1" as="geometry">
            <Array as="points">
              <mxPoint x="640" y="235" />
            </Array>
          </mxGeometry>
        </mxCell>
        <mxCell id="pjMFJL4pRq1TfvZJni5_-91" value="&lt;font style=&quot;font-size: 11px;&quot;&gt;Last Access for Same UID &amp;lt; LOCKOUT_PERIOD in Different Node?&lt;/font&gt;" style="rounded=1;whiteSpace=wrap;html=1;" vertex="1" parent="1">
          <mxGeometry x="560" y="300" width="160" height="69" as="geometry" />
        </mxCell>
        <mxCell id="pjMFJL4pRq1TfvZJni5_-93" value="&lt;div&gt;&lt;font color=&quot;#ffffff&quot;&gt;Authentication&lt;/font&gt;&lt;/div&gt;&lt;div&gt;&lt;font color=&quot;#ffffff&quot;&gt;Service&lt;br&gt;&lt;/font&gt;&lt;/div&gt;" style="text;html=1;align=center;verticalAlign=middle;whiteSpace=wrap;rounded=0;" vertex="1" parent="1">
          <mxGeometry x="402.7" y="390" width="130" height="30" as="geometry" />
        </mxCell>
        <mxCell id="pjMFJL4pRq1TfvZJni5_-96" style="edgeStyle=orthogonalEdgeStyle;rounded=0;orthogonalLoop=1;jettySize=auto;html=1;strokeColor=#FFFFFF;" edge="1" parent="1" source="pjMFJL4pRq1TfvZJni5_-94" target="pjMFJL4pRq1TfvZJni5_-71">
          <mxGeometry relative="1" as="geometry">
            <Array as="points">
              <mxPoint x="280" y="235" />
              <mxPoint x="280" y="270" />
            </Array>
          </mxGeometry>
        </mxCell>
        <mxCell id="pjMFJL4pRq1TfvZJni5_-97" style="edgeStyle=orthogonalEdgeStyle;rounded=0;orthogonalLoop=1;jettySize=auto;html=1;strokeColor=#FFFFFF;" edge="1" parent="1" source="pjMFJL4pRq1TfvZJni5_-94" target="pjMFJL4pRq1TfvZJni5_-74">
          <mxGeometry relative="1" as="geometry">
            <Array as="points">
              <mxPoint x="325" y="417" />
            </Array>
          </mxGeometry>
        </mxCell>
        <mxCell id="pjMFJL4pRq1TfvZJni5_-94" value="&lt;font color=&quot;#ffffff&quot;&gt;/remove_uid&lt;/font&gt;" style="sketch=0;outlineConnect=0;fontColor=#232F3E;gradientColor=none;strokeColor=#232F3E;fillColor=#ffffff;dashed=0;verticalLabelPosition=bottom;verticalAlign=top;align=center;html=1;fontSize=12;fontStyle=0;aspect=fixed;shape=mxgraph.aws4.resourceIcon;resIcon=mxgraph.aws4.topic_2;" vertex="1" parent="1">
          <mxGeometry x="300" y="210" width="50" height="50" as="geometry" />
        </mxCell>
      </root>
    </mxGraphModel>
  </diagram>
</mxfile>
